<svg xmlns="http://www.w3.org/2000/svg" viewBox="0 0 200 200">
  <!-- Background -->
  <circle cx="100" cy="100" r="95" fill="#0F172A" />
  <circle cx="100" cy="100" r="85" fill="#1E293B" />
  
  <!-- Orbit paths -->
  <ellipse cx="100" cy="100" rx="75" ry="30" fill="none" stroke="#64748B" stroke-width="0.5" stroke-dasharray="2,1" />
  <ellipse cx="100" cy="100" rx="60" ry="25" fill="none" stroke="#64748B" stroke-width="0.5" stroke-dasharray="2,1" />

  <!-- Main astronaut (leader) -->
  <g transform="translate(85, 60) scale(0.8)">
    <!-- Spacesuit -->
    <rect x="18" y="40" width="24" height="30" rx="8" fill="#1E40AF" />
    <!-- Helmet -->
    <circle cx="30" cy="30" r="15" fill="#DBEAFE" stroke="#1E40AF" stroke-width="2" />
    <!-- Visor -->
    <path d="M20 32 C20 22, 40 22, 40 32" fill="#38BDF8" stroke="#0369A1" stroke-width="1" />
    <!-- Backpack -->
    <rect x="22" y="50" width="16" height="10" rx="2" fill="#1E3A8A" />
    <!-- Arms -->
    <rect x="10" y="45" width="8" height="16" rx="4" fill="#1E40AF" />
    <rect x="42" y="45" width="8" height="16" rx="4" fill="#1E40AF" />
  </g>
  
  <!-- Team members (smaller astronauts) -->
  <g transform="translate(55, 90) scale(0.5)">
    <!-- Spacesuit -->
    <rect x="18" y="40" width="24" height="30" rx="8" fill="#4F46E5" />
    <!-- Helmet -->
    <circle cx="30" cy="30" r="15" fill="#DBEAFE" stroke="#4F46E5" stroke-width="2" />
    <!-- Visor -->
    <path d="M20 32 C20 22, 40 22, 40 32" fill="#38BDF8" stroke="#0369A1" stroke-width="1" />
    <!-- Arms -->
    <rect x="10" y="45" width="8" height="16" rx="4" fill="#4F46E5" />
    <rect x="42" y="45" width="8" height="16" rx="4" fill="#4F46E5" />
  </g>
  
  <g transform="translate(115, 90) scale(0.5)">
    <!-- Spacesuit -->
    <rect x="18" y="40" width="24" height="30" rx="8" fill="#4F46E5" />
    <!-- Helmet -->
    <circle cx="30" cy="30" r="15" fill="#DBEAFE" stroke="#4F46E5" stroke-width="2" />
    <!-- Visor -->
    <path d="M20 32 C20 22, 40 22, 40 32" fill="#38BDF8" stroke="#0369A1" stroke-width="1" />
    <!-- Arms -->
    <rect x="10" y="45" width="8" height="16" rx="4" fill="#4F46E5" />
    <rect x="42" y="45" width="8" height="16" rx="4" fill="#4F46E5" />
  </g>
  
  <g transform="translate(85, 120) scale(0.5)">
    <!-- Spacesuit -->
    <rect x="18" y="40" width="24" height="30" rx="8" fill="#4F46E5" />
    <!-- Helmet -->
    <circle cx="30" cy="30" r="15" fill="#DBEAFE" stroke="#4F46E5" stroke-width="2" />
    <!-- Visor -->
    <path d="M20 32 C20 22, 40 22, 40 32" fill="#38BDF8" stroke="#0369A1" stroke-width="1" />
    <!-- Arms -->
    <rect x="10" y="45" width="8" height="16" rx="4" fill="#4F46E5" />
    <rect x="42" y="45" width="8" height="16" rx="4" fill="#4F46E5" />
  </g>
  
  <!-- Connection lines -->
  <line x1="91" y1="85" x2="78" y2="95" stroke="#60A5FA" stroke-width="1" />
  <line x1="109" y1="85" x2="122" y2="95" stroke="#60A5FA" stroke-width="1" />
  <line x1="100" y1="110" x2="100" y2="120" stroke="#60A5FA" stroke-width="1" />
  
  <!-- Stars -->
  <circle cx="25" cy="25" r="1" fill="white" />
  <circle cx="40" cy="60" r="1" fill="white" />
  <circle cx="160" cy="40" r="1" fill="white" />
  <circle cx="180" cy="170" r="1" fill="white" />
  <circle cx="70" cy="180" r="1" fill="white" />
  <circle cx="130" cy="25" r="1" fill="white" />
  <circle cx="170" cy="100" r="1.5" fill="white" />
  <circle cx="30" cy="140" r="1.5" fill="white" />
  
  <!-- Title text -->
  <text x="100" y="170" font-family="Arial, sans-serif" font-size="12" fill="white" text-anchor="middle" font-weight="bold">LEADERSHIP</text>
</svg>