<svg xmlns="http://www.w3.org/2000/svg" viewBox="0 0 200 200">
  <!-- Background -->
  <circle cx="100" cy="100" r="95" fill="#0F172A" />
  <circle cx="100" cy="100" r="85" fill="#1E293B" />
  
  <!-- Astronaut exercising -->
  <g transform="translate(100, 95)">
    <!-- Main astronaut doing physical training -->
    <g transform="scale(0.9)">
      <!-- Spacesuit body -->
      <rect x="-25" y="-10" width="50" height="60" rx="15" fill="#2563EB" />
      
      <!-- Helmet -->
      <circle cx="0" cy="-30" r="20" fill="#DBEAFE" stroke="#2563EB" stroke-width="2" />
      
      <!-- Visor -->
      <path d="M-12 -25 C-12 -35, 12 -35, 12 -25" fill="#38BDF8" stroke="#0369A1" stroke-width="1" />
      
      <!-- Left arm lifting weight -->
      <g transform="rotate(-30) translate(-38, -5)">
        <rect x="0" y="0" width="25" height="10" rx="5" fill="#2563EB" />
        <circle cx="0" cy="5" r="6" fill="#2563EB" />
        <circle cx="25" cy="5" r="3" fill="#64748B" />
        <rect x="25" y="0" width="5" height="10" fill="#64748B" />
        <circle cx="30" cy="5" r="3" fill="#64748B" />
      </g>
      
      <!-- Right arm lifting weight -->
      <g transform="rotate(30) translate(13, -5)">
        <rect x="0" y="0" width="25" height="10" rx="5" fill="#2563EB" />
        <circle cx="0" cy="5" r="6" fill="#2563EB" />
        <circle cx="25" cy="5" r="3" fill="#64748B" />
        <rect x="25" y="0" width="5" height="10" fill="#64748B" />
        <circle cx="30" cy="5" r="3" fill="#64748B" />
      </g>
      
      <!-- Legs -->
      <rect x="-20" y="50" width="15" height="30" rx="7" fill="#2563EB" />
      <rect x="5" y="50" width="15" height="30" rx="7" fill="#2563EB" />
    </g>
  </g>
  
  <!-- Exercise machine / equipment -->
  <g transform="translate(35, 110)">
    <!-- Treadmill base -->
    <rect x="0" y="0" width="40" height="10" rx="2" fill="#475569" />
    <rect x="5" y="-5" width="30" height="5" rx="1" fill="#334155" />
    <!-- Control panel -->
    <rect x="10" y="-15" width="20" height="10" rx="1" fill="#334155" />
    <circle cx="15" cy="-10" r="2" fill="#F59E0B" />
    <circle cx="25" cy="-10" r="2" fill="#10B981" />
    <!-- Treadmill belt -->
    <rect x="5" y="-5" width="30" height="5" fill="#1E293B" stroke="#475569" stroke-width="0.5" />
  </g>
  
  <!-- Resistance training equipment -->
  <g transform="translate(150, 100)">
    <!-- Bench -->
    <rect x="-25" y="0" width="40" height="10" rx="2" fill="#475569" />
    <rect x="-20" y="-5" width="30" height="5" rx="1" fill="#334155" />
    <!-- Weights -->
    <circle cx="-15" cy="15" r="8" fill="#64748B" stroke="#94A3B8" stroke-width="1" />
    <circle cx="5" cy="15" r="8" fill="#64748B" stroke="#94A3B8" stroke-width="1" />
    <rect x="-15" y="13" width="20" height="4" fill="#64748B" stroke="#94A3B8" stroke-width="0.5" />
  </g>
  
  <!-- Heart rate monitor visualization -->
  <g transform="translate(50, 50)">
    <path d="M0,15 L10,5 L20,25 L30,0 L40,10 L50,5 L60,15 L70,10 L80,20 L90,15" 
          fill="none" stroke="#EF4444" stroke-width="1.5" />
    
    <!-- Pulse dot animation -->
    <circle cx="30" cy="0" r="3" fill="#EF4444">
      <animate attributeName="opacity" values="1;0.2;1" dur="1s" repeatCount="indefinite" />
    </circle>
  </g>
  
  <!-- Oxygen level indicator -->
  <g transform="translate(150, 45)">
    <rect x="-20" y="0" width="30" height="10" rx="5" fill="none" stroke="#0EA5E9" stroke-width="1" />
    <rect x="-18" y="2" width="26" height="6" rx="3" fill="#0EA5E9" fill-opacity="0.6" />
    <text x="-5" y="8" font-family="Arial, sans-serif" font-size="7" fill="white" text-anchor="middle">O₂</text>
  </g>
  
  <!-- G-force training indicator -->
  <g transform="translate(45, 170)">
    <circle cx="0" cy="0" r="15" fill="none" stroke="#A855F7" stroke-width="1" />
    <path d="M0,-15 L0,-8" stroke="#A855F7" stroke-width="1" />
    <path d="M0,15 L0,8" stroke="#A855F7" stroke-width="1" />
    <path d="M-15,0 L-8,0" stroke="#A855F7" stroke-width="1" />
    <path d="M15,0 L8,0" stroke="#A855F7" stroke-width="1" />
    <path d="M-10,-10 L-6,-6" stroke="#A855F7" stroke-width="1" />
    <path d="M10,-10 L6,-6" stroke="#A855F7" stroke-width="1" />
    <path d="M-10,10 L-6,6" stroke="#A855F7" stroke-width="1" />
    <path d="M10,10 L6,6" stroke="#A855F7" stroke-width="1" />
    <text x="0" y="4" font-family="Arial, sans-serif" font-size="10" fill="#A855F7" text-anchor="middle">G</text>
  </g>
  
  <!-- Stars -->
  <circle cx="25" cy="25" r="1" fill="white" />
  <circle cx="40" cy="60" r="1" fill="white" />
  <circle cx="160" cy="40" r="1" fill="white" />
  <circle cx="180" cy="170" r="1" fill="white" />
  <circle cx="70" cy="180" r="1" fill="white" />
  <circle cx="130" cy="25" r="1" fill="white" />
  <circle cx="170" cy="100" r="1.5" fill="white" />
  <circle cx="30" cy="140" r="1.5" fill="white" />
  
  <!-- Title text -->
  <text x="100" y="170" font-family="Arial, sans-serif" font-size="12" fill="white" text-anchor="middle" font-weight="bold">PHYSICAL TRAINING</text>
</svg>