<svg viewBox="0 0 640 480" xmlns="http://www.w3.org/2000/svg">
  <g fill-rule="evenodd">
    <g stroke-width="1pt">
      <path fill="#bd3d44" d="M0 0h972.8v39.4H0zm0 78.8h972.8v39.4H0zm0 78.7h972.8v39.4H0zm0 78.8h972.8v39.4H0zm0 78.8h972.8v39.4H0zm0 78.7h972.8v39.4H0z" transform="scale(.9375)"/>
      <path fill="#fff" d="M0 39.4h972.8v39.4H0zm0 78.8h972.8v39.3H0zm0 78.7h972.8v39.4H0zm0 78.8h972.8v39.4H0zm0 78.8h972.8v39.4H0z" transform="scale(.9375)"/>
    </g>
    <path fill="#192f5d" d="M0 0h389.1v275.7H0z" transform="scale(.9375)"/>
    <path fill="#fff" d="M32.4 11.8 36 22.7h11.4l-9.2 6.7 3.5 11-9.3-6.8-9.2 6.7 3.5-10.9-9.3-6.7H29zm64.9 0 3.5 10.9h11.5l-9.3 6.7 3.5 11-9.2-6.8-9.3 6.7 3.5-10.9-9.2-6.7h11.4zm64.8 0 3.6 10.9H177l-9.2 6.7 3.5 11-9.3-6.8-9.2 6.7 3.5-10.9-9.3-6.7h11.5zm64.9 0 3.5 10.9H242l-9.3 6.7 3.6 11-9.3-6.8-9.3 6.7 3.6-10.9-9.3-6.7h11.4zm64.8 0 3.6 10.9h11.4l-9.2 6.7 3.5 11-9.3-6.8-9.2 6.7 3.5-10.9-9.2-6.7h11.4zm64.9 0 3.5 10.9h11.5l-9.3 6.7 3.6 11-9.3-6.8-9.3 6.7 3.6-10.9-9.3-6.7h11.5z" transform="scale(.9375)"/>
  </g>
</svg>