<svg viewBox="0 0 640 480" xmlns="http://www.w3.org/2000/svg">
  <path fill="#de2910" d="M0 0h640v480H0z"/>
  <g fill="#ffde00">
    <path d="M128 128 l16-48 l16 48 l-42-30 h52 z"/>
    <path d="M224 80 l-3 12 l-10-8 l8 10 l-12 3 l12 3 l-8 10 l10-8 l3 12 l3-12 l10 8 l-8-10 l12-3 l-12-3 l8-10 l-10 8 z"/>
    <path d="M256 128 l-3 12 l-10-8 l8 10 l-12 3 l12 3 l-8 10 l10-8 l3 12 l3-12 l10 8 l-8-10 l12-3 l-12-3 l8-10 l-10 8 z"/>
    <path d="M224 176 l-3 12 l-10-8 l8 10 l-12 3 l12 3 l-8 10 l10-8 l3 12 l3-12 l10 8 l-8-10 l12-3 l-12-3 l8-10 l-10 8 z"/>
    <path d="M192 128 l-3 12 l-10-8 l8 10 l-12 3 l12 3 l-8 10 l10-8 l3 12 l3-12 l10 8 l-8-10 l12-3 l-12-3 l8-10 l-10 8 z"/>
  </g>
</svg>